<?xml version="1.0" encoding="utf-8"?>
<!-- Generator: Adobe Illustrator 22.1.0, SVG Export Plug-In . SVG Version: 6.00 Build 0)  -->
<svg version="1.1" id="Camada_1" xmlns="http://www.w3.org/2000/svg" xmlns:xlink="http://www.w3.org/1999/xlink" x="0px" y="0px"
	 viewBox="0 0 511 442" style="enable-background:new 0 0 511 442;" xml:space="preserve">
<style type="text/css">
	.st0{fill-rule:evenodd;clip-rule:evenodd;}
</style>
<g>
	<path class="st0" d="M351.6,214.9c-0.4,0-0.8,0.1-1,0.3c-0.1,0.1-0.1,0.1-0.2,0.2c-0.3,0.3-0.5,0.7-0.5,1.1c0,0.4,0.2,0.8,0.5,1.1
		c0.3,0.3,0.8,0.5,1.3,0.5c0.5,0,1-0.2,1.3-0.5c0.3-0.3,0.5-0.7,0.5-1.1c0-0.3-0.1-0.7-0.3-0.9l-0.2-0.2
		C352.5,215.1,352,214.9,351.6,214.9z"/>
	<path class="st0" d="M176.1,213.6c0.6,0,1.1-0.2,1.5-0.6c0.3-0.3,0.6-0.7,0.6-1.2c0-0.5-0.2-0.9-0.6-1.2v0
		c-0.4-0.3-0.9-0.6-1.5-0.6c-0.6,0-1.1,0.2-1.4,0.6c-0.3,0.3-0.6,0.7-0.6,1.2c0,0.5,0.2,0.9,0.6,1.2
		C175.1,213.4,175.6,213.6,176.1,213.6z"/>
	<path class="st0" d="M111.3,310.6c3.9,0,7.1-3.1,7.1-7c0-3.8-3.2-7-7.1-7c-3.9,0-7.1,3.2-7.1,7
		C104.3,307.4,107.4,310.6,111.3,310.6z"/>
	<path class="st0" d="M138.8,323.4c-3.9,0-7.1,3.1-7.1,7c0,3.8,3.2,7,7.1,7c3.9,0,7.1-3.1,7.1-7
		C145.9,326.5,142.7,323.4,138.8,323.4z"/>
	<path class="st0" d="M83.9,323.4c-3.9,0-7.1,3.1-7.1,7c0,3.8,3.2,7,7.1,7c3.9,0,7.1-3.1,7.1-7C91,326.5,87.8,323.4,83.9,323.4z"/>
	<path class="st0" d="M363,207.2c-0.6,0-1.1,0.2-1.5,0.6c-0.3,0.3-0.5,0.7-0.5,1.2c0,0.5,0.2,0.9,0.5,1.2v0c0.4,0.3,0.9,0.6,1.5,0.6
		c0.6,0,1.1-0.2,1.5-0.6c0.3-0.3,0.6-0.7,0.6-1.2c0-0.5-0.2-0.9-0.6-1.2C364.1,207.4,363.6,207.2,363,207.2z"/>
	<path class="st0" d="M111.3,350.3c-3.9,0-7.1,3.1-7.1,7c0,3.8,3.1,7,7.1,7c3.9,0,7.1-3.1,7.1-7
		C118.4,353.4,115.2,350.3,111.3,350.3z"/>
	<path class="st0" d="M111.3,316.8c-7.6,0-13.7,6-13.7,13.5c0,7.5,6.1,13.5,13.7,13.5c7.5,0,13.7-6.1,13.7-13.5
		C125,322.9,118.9,316.8,111.3,316.8z"/>
	<path class="st0" d="M88.3,200.4c2.2,5.2,6.6,10.4,12.8,15.6c1.3,1,4.6,2.4,8.2,3c1.1,0.2,2.3,0.3,3.5,0.4v0.8h9.1v1.1h42.9
		l7.3-7.3c-0.5-0.7-0.7-1.5-0.7-2.3c0-1.2,0.5-2.4,1.4-3.2c0.8-0.8,2-1.3,3.3-1.3c1.3,0,2.4,0.5,3.3,1.3c0.9,0.8,1.4,1.9,1.4,3.2
		c0,1.2-0.6,2.4-1.4,3.2c-0.8,0.8-2,1.3-3.3,1.3c-0.7,0-1.3-0.1-1.9-0.3l-7.8,7.8l-0.4,0.4h-0.6H122v2.8h264.7v-2.8h-44h-0.6
		l-0.4-0.4l-7.8-7.8c-0.6,0.2-1.2,0.3-1.9,0.3c-1.2,0-2.4-0.5-3.3-1.3c-0.9-0.8-1.4-1.9-1.4-3.2c0-1.2,0.5-2.4,1.4-3.2
		c0.9-0.8,2-1.3,3.3-1.3c1.3,0,2.5,0.5,3.3,1.3c0.9,0.8,1.4,1.9,1.4,3.2c0,0.5-0.1,0.9-0.2,1.3c-0.1,0.4-0.3,0.7-0.5,1l6.9,6.9
		l0.3,0.3h43.4v-0.3v-0.7v-2.9h-20.4h-11.3c-0.2,0.6-0.5,1-0.9,1.4c-0.6,0.6-1.5,1-2.5,1c-0.9,0-1.8-0.4-2.5-1
		c-0.6-0.6-1.1-1.5-1.1-2.4c0-0.6,0.1-1.1,0.4-1.6c0.2-0.3,0.4-0.6,0.7-0.8c0.6-0.6,1.5-1,2.5-1c1,0,1.8,0.4,2.5,1
		c0.4,0.4,0.7,0.9,0.9,1.4h31.7v-16.1h-12.4l-7.3,7.2c0.4,0.7,0.7,1.5,0.7,2.3c0,1.3-0.5,2.4-1.4,3.2v0c-0.8,0.8-2,1.3-3.3,1.3
		c-1.3,0-2.4-0.5-3.3-1.3v0c-0.9-0.8-1.4-1.9-1.4-3.2c0-1.2,0.6-2.4,1.4-3.2c0.8-0.8,2-1.3,3.3-1.3c0.7,0,1.4,0.1,1.9,0.4l7.8-7.8
		l0.4-0.4h0.6h13v-2.5H122v2.5h12.5h0.6l0.4,0.4l7.8,7.8c0.6-0.3,1.3-0.4,1.9-0.4c1.2,0,2.4,0.5,3.3,1.3c0.9,0.8,1.4,2,1.4,3.2
		c0,1.3-0.6,2.4-1.4,3.2v0c-0.8,0.8-2,1.3-3.3,1.3c-1.3,0-2.4-0.5-3.3-1.3v0c-0.9-0.8-1.4-1.9-1.4-3.2c0-0.8,0.2-1.7,0.7-2.3
		l-7.3-7.2H122v8.3h-9.1v0.8c-9.3-1.4-17-4.6-23-9.1c-1.9-4.7-1.9-9.5,0.4-14.6c4.8-10.8,19.6-22.9,47.3-38.1
		c6.2-3.4,10.5-8.2,12.7-13.4c2.4-5.6,2.5-11.7,0.2-17c-1.4-3.3-2.6-6.5-3.5-9.5c0.9,0.2,1.7,0.4,2.6,0.6l2.4,0.6
		c10.3,2.6,23.5,5.9,28.2-6.9c12.2-32.9,19.8-36.5,28.4-33.3c2.1,0.8,4.4,2,6.7,3.2c8.2,4.4,18,9.7,32.4,3.4
		c1.8,0.8,3.6,1.6,5.4,2.5c1,0.5,1.9,0.7,2.8,0.9v1.3h9.1v8.8h0.1v25.8h146.8V85.5V74.8h0.1h8c7,0,12.7,0.1,12.7-7.6V47.1
		c0-7.7-5.7-7.2-12.7-7.2h-8h-0.1v-2.9H406v48.5H269.6V63.7H265V68h-9.1v1.1c-1.5,0.1-2.8,0.4-3.3,0.6v0c-1.7,1.1-3.4,1.9-5,2.7
		C225.5,62.6,201,56,181.2,55.9c-10.5-0.1-19.8,1.7-26.7,5.9c-7,4.2-11.6,10.8-12.7,20.3c-0.7,6.2,0,13.6,2.6,22.4
		c-29.1-5.2-50.3,5-62.4,21v0c-6,8-9.9,17.4-11.4,26.9c-1.5,9.6-0.6,19.4,2.8,28.1C76.4,188.2,81.4,195.2,88.3,200.4z M112.9,210.2
		v0.9h9.1v4.3h31.2c0.2-0.5,0.5-1,0.9-1.4c0.6-0.6,1.5-1,2.5-1c0.9,0,1.8,0.4,2.5,1c0.7,0.6,1.1,1.5,1.1,2.4c0,0.9-0.4,1.8-1.1,2.4
		c-0.6,0.6-1.5,1-2.5,1c-1,0-1.9-0.4-2.5-1c-0.4-0.4-0.7-0.8-0.9-1.4H122v-0.7h-9.1v0.9c-1.1-0.1-2.2-0.2-3.2-0.4
		c-3.4-0.6-6.3-1.8-7.4-2.7c-4.8-4.1-8.5-8.1-10.8-12.1C97.3,206.4,104.5,209,112.9,210.2z M253.5,71.3L253.5,71.3
		c0.3-0.2,1.2-0.3,2.4-0.4v1.5h9.1v2.5h-9.1V76c-0.7-0.1-1.4-0.3-2.1-0.7c-1.4-0.6-2.7-1.3-4.1-1.9C251,72.8,252.2,72.1,253.5,71.3z
		 M143.5,82.2c1-8.9,5.3-15,11.9-19c6.6-4,15.6-5.7,25.8-5.6c19.1,0.1,42.6,6.4,64.1,15.7c-12.8,4.9-21.8,0.1-29.3-3.9
		c-2.4-1.3-4.7-2.5-7-3.4c-9.6-3.5-18,0-30.7,34.4c-4.1,11.2-16.4,8.1-26.1,5.7l-2.4-0.6c-1.2-0.3-2.4-0.6-3.6-0.8
		C143.6,95.9,142.8,88.4,143.5,82.2z M72.4,152.7c1.4-9.3,5.1-18.4,11-26.1c11.9-15.6,32.8-25.6,61.6-20.2c1,3.3,2.3,6.9,3.9,10.6
		c2.1,4.9,2,10.5-0.2,15.7c-2.1,4.9-6.1,9.3-11.9,12.5c-28,15.3-43.1,27.7-48.1,38.9c-2.1,4.6-2.5,9-1.4,13.3
		c-5.6-4.8-9.6-10.8-12.2-17.4C71.8,171.4,71,161.9,72.4,152.7z"/>
	<polygon class="st0" points="464.8,23.7 444.4,37.1 468.1,27.2 	"/>
	<rect x="108.9" y="185.6" class="st0" width="291" height="4.2"/>
	<path class="st0" d="M147.2,208.9c0-0.5-0.2-0.9-0.6-1.2c-0.3-0.3-0.9-0.6-1.4-0.6c-0.6,0-1.1,0.2-1.5,0.6
		c-0.3,0.3-0.6,0.7-0.6,1.2c0,0.5,0.2,0.9,0.6,1.2c0.4,0.3,0.9,0.6,1.5,0.6c0.5,0,1.1-0.2,1.4-0.6v0
		C146.9,209.8,147.2,209.4,147.2,208.9z"/>
	<rect x="108.9" y="231.3" class="st0" width="291" height="4.2"/>
	<path class="st0" d="M342.2,182.7c3.9,0,7.2-4.5,7.2-10v-46.4c0-5.5-3.2-9.9-7.2-9.9h-53.6c-3.9,0-7.2,4.5-7.2,9.9v46.4
		c0,5.5,3.2,10,7.2,10H342.2z"/>
	<path class="st0" d="M156.6,218c0.5,0,1-0.2,1.3-0.5c0.3-0.3,0.5-0.7,0.5-1.1c0-0.4-0.2-0.8-0.5-1.1c-0.3-0.3-0.8-0.5-1.3-0.5
		s-1,0.2-1.3,0.5c-0.3,0.3-0.5,0.7-0.5,1.1c0,0.4,0.2,0.8,0.5,1.1C155.6,217.8,156.1,218,156.6,218z"/>
	<path class="st0" d="M397.3,316.8c-7.6,0-13.7,6-13.7,13.5c0,7.5,6.2,13.5,13.7,13.5c7.5,0,13.7-6.1,13.7-13.5
		C411,322.9,404.9,316.8,397.3,316.8z"/>
	<polygon class="st0" points="466.7,85.4 470,81.9 446.3,72 	"/>
	<path class="st0" d="M424.8,323.4c-3.9,0-7.1,3.1-7.1,7c0,3.8,3.2,7,7.1,7c3.9,0,7.1-3.1,7.1-7
		C431.9,326.5,428.7,323.4,424.8,323.4z"/>
	<path class="st0" d="M391.6,256.6H117.1c-47.4,0-86.3,33.2-86.3,73.9c0,40.6,38.8,73.8,86.3,73.8h274.4c47.4,0,86.2-33.2,86.2-73.8
		C477.8,289.8,439,256.6,391.6,256.6z M111.3,387.4c-32,0-58-25.5-58-57c0-31.5,26-57,58-57c32,0,58,25.5,58,57
		C169.3,361.9,143.4,387.4,111.3,387.4z M281.1,366.2h-89.3l8.9-17.9h89.3L281.1,366.2z M294.5,339.4h-89.4l8.9-17.9h89.4
		L294.5,339.4z M307.9,312.5h-89.3l9-17.9h89.3L307.9,312.5z M397.3,387.4c-32,0-58-25.5-58-57c0-31.5,25.9-57,58-57
		c32,0,58,25.5,58,57C455.3,361.9,429.4,387.4,397.3,387.4z"/>
	<path class="st0" d="M464.3,268.1c-17.1-15.9-40.7-25.8-66.7-25.8H111.1c-25.9,0-49.5,9.9-66.7,25.8c-17.2,16-27.9,38-27.9,62.3
		c0,24.3,10.7,46.4,27.9,62.3c17.1,15.9,40.7,25.8,66.7,25.8h286.5c26,0,49.6-9.9,66.7-25.8c17.2-16,27.9-38,27.9-62.3
		C492.2,306.1,481.5,284.1,464.3,268.1z M458.2,386.2c-15.5,14.4-37,23.4-60.6,23.4H111.1c-23.6,0-45.1-9-60.6-23.4
		c-15.5-14.3-25-34.1-25-55.8c0-21.7,9.6-41.5,25-55.8c15.5-14.4,37-23.4,60.6-23.4h286.5c23.6,0,45.1,8.9,60.6,23.4
		c15.4,14.3,25,34.1,25,55.8C483.2,352.1,473.6,371.9,458.2,386.2z"/>
	<polygon class="st0" points="472.1,53.6 446.5,55.7 470.8,58.2 	"/>
	<path class="st0" d="M397.3,350.3c-3.9,0-7.1,3.1-7.1,7c0,3.8,3.1,7,7.1,7c3.9,0,7.1-3.1,7.1-7
		C404.4,353.4,401.2,350.3,397.3,350.3z"/>
	<polygon class="st0" points="342.1,221.1 342.9,221.1 333.7,212.8 	"/>
	<path class="st0" d="M334,211.8c0-0.5-0.2-0.9-0.6-1.2c-0.4-0.3-0.9-0.6-1.5-0.6c-0.5,0-1.1,0.2-1.4,0.6v0
		c-0.4,0.3-0.6,0.7-0.6,1.2c0,0.5,0.2,0.9,0.6,1.2c0.3,0.3,0.8,0.6,1.4,0.6c0.6,0,1.1-0.2,1.5-0.6l0.2-0.3l0,0
		C333.9,212.5,334,212.2,334,211.8z"/>
	<path class="st0" d="M397.3,310.6c3.9,0,7.1-3.1,7.1-7c0-3.8-3.2-7-7.1-7c-3.9,0-7.1,3.2-7.1,7
		C390.2,307.4,393.4,310.6,397.3,310.6z"/>
	<path class="st0" d="M369.9,323.4c-3.9,0-7.1,3.1-7.1,7c0,3.8,3.2,7,7.1,7c3.9,0,7.1-3.1,7.1-7
		C376.9,326.5,373.8,323.4,369.9,323.4z"/>
</g>
</svg>
